<?xml version="1.0"?>
<svg version="1.1" xmlns="http://www.w3.org/2000/svg" width="400px" height="200px" style="border:2px solid black"><path fill="#4eabed" d="M133.65087890625,71.61865234375q-0.18310546875-2.23388671875,0.29296875-3.8818359375t1.904296875-2.7099609375t4.57763671875-1.06201171875l11.7919921875,0q2.4169921875,0,6.33544921875,0.25634765625t8.4228515625,0.76904296875t8.97216796875,1.57470703125t8.16650390625,2.63671875t6.005859375,3.8818359375t2.30712890625,5.45654296875q0,4.4677734375-2.60009765625,8.38623046875t-6.5185546875,7.06787109375t-8.2763671875,5.60302734375t-7.80029296875,4.43115234375q13.623046875,3.0029296875,21.3134765625,12.451171875t7.6904296875,23.583984375q0,7.470703125-2.8564453125,14.75830078125t-7.80029296875,13.14697265625t-11.71875,9.4482421875t-14.53857421875,3.5888671875q-1.025390625,0-2.30712890625-0.2197265625t-2.34375-0.69580078125t-1.8310546875-1.35498046875t-0.76904296875-2.2705078125q0-6.4453125,6.9580078125-6.4453125q1.171875,0,2.74658203125,0.32958984375t2.45361328125,1.35498046875q4.0283203125-1.6845703125,7.36083984375-5.3466796875t5.6396484375-8.16650390625t3.5888671875-9.4482421875t1.28173828125-8.97216796875q0-4.833984375-1.42822265625-9.85107421875t-4.13818359375-9.3017578125t-6.6650390625-7.21435546875t-9.08203125-3.662109375q-1.318359375-0.146484375-2.89306640625-0.2197265625l-3.1494140625-0.146484375t-3.076171875-0.439453125t-2.60009765625-1.171875q0.5859375,12.158203125,1.50146484375,24.2431640625t2.45361328125,24.2431640625q0.5859375,0.5859375,0.8056640625,1.72119140625t0.3662109375,2.4169921875t0.146484375,2.45361328125l0,1.9775390625q0,1.318359375-0.87890625,2.16064453125t-2.08740234375,1.35498046875t-2.5634765625,0.6591796875t-2.38037109375,0.146484375q-3.2958984375,0-5.0537109375-0.87890625t-2.490234375-2.5634765625t-0.9521484375-3.84521484375t-0.3662109375-4.72412109375q-1.9775390625-20.4345703125-2.8564453125-40.4296875t-0.87890625-40.4296875q0-2.4169921875-0.18310546875-4.65087890625z M147.1640625,68.505859375q0,9.0087890625,0.5859375,18.05419921875t1.025390625,18.05419921875q3.2958984375-1.9775390625,8.642578125-4.65087890625t10.36376953125-5.89599609375t8.60595703125-7.1044921875t3.5888671875-8.4228515625q0-3.5888671875-4.248046875-5.45654296875t-9.8876953125-2.783203125t-11.02294921875-1.13525390625t-7.65380859375-0.6591796875z M211.15356445312,161.083984375q0-2.5634765625,1.7578125-3.25927734375t3.80859375-0.69580078125q3.5888671875,0,6.0791015625,3.22265625t4.72412109375,7.06787109375t4.43115234375,7.06787109375t5.2001953125,3.22265625q2.2705078125,0,4.13818359375-1.13525390625t3.22265625-2.8564453125t2.08740234375-3.8818359375t0.732421875-4.28466796875q0-5.56640625-2.23388671875-11.4990234375t-5.712890625-12.2314453125t-7.36083984375-12.890625t-7.32421875-13.4033203125t-5.712890625-13.87939453125t-2.2705078125-14.24560546875q0-10.7666015625,6.4453125-16.69921875t16.9921875-5.9326171875q3.5888671875,0,7.2509765625,1.025390625t6.73828125,3.076171875t5.01708984375,5.0537109375t1.94091796875,7.03125q0,1.318359375-1.94091796875,1.72119140625t-2.81982421875,0.40283203125q-1.318359375,0-2.8564453125-0.32958984375t-1.9775390625-1.79443359375t-1.2451171875-3.369140625t-2.01416015625-3.55224609375t-2.8564453125-2.8564453125t-3.62548828125-1.20849609375q-3.2958984375,0-5.60302734375,1.35498046875t-3.7353515625,3.62548828125t-2.1240234375,5.09033203125t-0.69580078125,5.82275390625q0,7.03125,2.4169921875,14.17236328125t6.005859375,14.208984375t7.80029296875,13.95263671875t7.80029296875,13.4033203125t6.005859375,12.744140625t2.4169921875,11.7919921875q0,4.98046875-2.34375,8.4228515625t-5.9326171875,5.60302734375t-7.94677734375,3.1494140625t-8.53271484375,0.98876953125q-4.4677734375,0-9.1552734375-1.79443359375t-8.4228515625-4.94384765625t-6.15234375-7.36083984375t-2.4169921875-9.11865234375z"/><path fill="#" d=""/></svg>
